<?xml version="1.0"?>
<svg width="489.575" height="489.575" xmlns="http://www.w3.org/2000/svg" xmlns:svg="http://www.w3.org/2000/svg" version="1.1" xml:space="preserve">
 <g class="layer">
  <title>Layer 1</title>
  <g id="svg_1">
   <g id="svg_2">
    <path d="m7.1,427.68l77.8,0c10.7,1 28.7,2.4 46.7,2c11.3,0.9 23.4,1 33,-1.1c32.5,-6.9 24.4,-29.6 24.4,-29.6c17.6,-13.2 7.6,-29.7 7.6,-29.7c15.6,-16.3 0.3,-29.9 0.3,-29.9s8.4,-13.1 -2.4,-23.1c-9.2,-8.4 -28.9,-7.3 -40.8,-5.8l-8.5,-33.6l23.1,0l0,-9.3c27.2,4.4 72.2,16 103.6,45.7c0.3,5.5 5.2,9.9 11,9.2c5,-0.6 8.7,-5.2 8.7,-10.3l0,-57.6c12.6,-4.7 21.6,-16.8 21.6,-31.1s-9,-26.4 -21.6,-31.1l0,-57.1c0,-5.1 -3.6,-9.7 -8.7,-10.3c-5.8,-0.7 -10.7,3.6 -11,9.2c-31.4,29.8 -76.3,41.3 -103.6,45.7l0,-9.3l-62.2,0c-12.4,0 -22.4,10 -22.4,22.4l0,10l-6.8,0c-4.1,0 -7.5,3.4 -7.5,7.5l0,28.1c0,4.1 3.4,7.5 7.5,7.5l6.8,0l0,8.6c0,12.4 10,22.4 22.4,22.4l5.7,0l6.6,27.3c-21,-2.9 -43.5,18.1 -43.5,18.1c-3.9,4.1 -6.4,8.7 -7.9,12.4l0,0c-0.4,0.9 -0.7,1.8 -1,2.6c-0.5,1.1 -1.8,2.7 -3.5,4.4c-4,4.1 -9.6,6.4 -15.3,6.4l-40.1,0c-3.9,0 -7.1,3.2 -7.1,7.1l0,65.3c0,3.8 3.2,7 7.1,7zm100.3,-174.4l0,-59.1l37.2,0l0,59.1l-37.2,0z" fill="#012b5d" id="svg_3"/>
    <path d="m347.7,83.68c-31.3,31.3 -32.4,81.2 -3.5,113.8l0.8,0.7c-3.1,6.8 -8.5,15.1 -17.1,19.4c-2.8,1.4 -2.2,5.6 0.9,6.1c9.4,1.5 22.8,-0.2 35.3,-9.7l0.2,0.1c31.9,18.7 73.5,14.4 100.9,-12.9c32.5,-32.5 32.5,-85.1 0,-117.6c-32.4,-32.4 -85,-32.4 -117.5,0.1zm30.4,67.3c-4.7,0 -8.6,-3.8 -8.6,-8.6c0,-4.7 3.8,-8.6 8.6,-8.6c4.7,0 8.6,3.8 8.6,8.6c-0.1,4.8 -3.9,8.6 -8.6,8.6zm28.4,0c-4.7,0 -8.6,-3.8 -8.6,-8.6c0,-4.7 3.8,-8.6 8.6,-8.6c4.7,0 8.6,3.8 8.6,8.6c0,4.8 -3.9,8.6 -8.6,8.6zm28.4,0c-4.7,0 -8.6,-3.8 -8.6,-8.6c0,-4.7 3.8,-8.6 8.6,-8.6s8.6,3.8 8.6,8.6s-3.9,8.6 -8.6,8.6z" fill="#012b5d" id="svg_4"/>
   </g>
  </g>
 </g>
</svg>