<svg xmlns="http://www.w3.org/2000/svg" xmlns:xlink="http://www.w3.org/1999/xlink" id="Capa_1" width="800" height="800" fill="#000" version="1.1" viewBox="0 0 489.575 489.575" xml:space="preserve"><g><g><path d="M7.1,427.678h77.8c10.7,1,28.7,2.4,46.7,2c11.3,0.9,23.4,1,33-1.1c32.5-6.9,24.4-29.6,24.4-29.6 c17.6-13.2,7.6-29.7,7.6-29.7c15.6-16.3,0.3-29.9,0.3-29.9s8.4-13.1-2.4-23.1c-9.2-8.4-28.9-7.3-40.8-5.8l-8.5-33.6h23.1v-9.3 c27.2,4.4,72.2,16,103.6,45.7c0.3,5.5,5.2,9.9,11,9.2c5-0.6,8.7-5.2,8.7-10.3v-57.6c12.6-4.7,21.6-16.8,21.6-31.1 s-9-26.4-21.6-31.1v-57.1c0-5.1-3.6-9.7-8.7-10.3c-5.8-0.7-10.7,3.6-11,9.2c-31.4,29.8-76.3,41.3-103.6,45.7v-9.3h-62.2 c-12.4,0-22.4,10-22.4,22.4v10h-6.8c-4.1,0-7.5,3.4-7.5,7.5v28.1c0,4.1,3.4,7.5,7.5,7.5h6.8v8.6c0,12.4,10,22.4,22.4,22.4h5.7 l6.6,27.3c-21-2.9-43.5,18.1-43.5,18.1c-3.9,4.1-6.4,8.7-7.9,12.4l0,0c-0.4,0.9-0.7,1.8-1,2.6c-0.5,1.1-1.8,2.7-3.5,4.4 c-4,4.1-9.6,6.4-15.3,6.4H7.1c-3.9,0-7.1,3.2-7.1,7.1v65.3C0,424.478,3.2,427.678,7.1,427.678z M107.4,253.278v-59.1h37.2v59.1 H107.4z"/><path d="M347.7,83.678c-31.3,31.3-32.4,81.2-3.5,113.8l0.8,0.7c-3.1,6.8-8.5,15.1-17.1,19.4c-2.8,1.4-2.2,5.6,0.9,6.1 c9.4,1.5,22.8-0.2,35.3-9.7l0.2,0.1c31.9,18.7,73.5,14.4,100.9-12.9c32.5-32.5,32.5-85.1,0-117.6 C432.8,51.178,380.2,51.178,347.7,83.678z M378.1,150.978c-4.7,0-8.6-3.8-8.6-8.6c0-4.7,3.8-8.6,8.6-8.6c4.7,0,8.6,3.8,8.6,8.6 C386.6,147.178,382.8,150.978,378.1,150.978z M406.5,150.978c-4.7,0-8.6-3.8-8.6-8.6c0-4.7,3.8-8.6,8.6-8.6c4.7,0,8.6,3.8,8.6,8.6 C415.1,147.178,411.2,150.978,406.5,150.978z M434.9,150.978c-4.7,0-8.6-3.8-8.6-8.6c0-4.7,3.8-8.6,8.6-8.6s8.6,3.8,8.6,8.6 S439.6,150.978,434.9,150.978z"/></g></g></svg>